<svg width="454" height="465" viewBox="0 0 454 465" fill="none" xmlns="http://www.w3.org/2000/svg">
<g id="AI portfolio">
<g id="Frame 30125">
<rect id="Rectangle 4221" x="0.174377" y="3.4292" width="452.978" height="460.914" fill="#0B0B0B"/>
<rect id="Rectangle 4223" y="2" width="452.978" height="460.914" fill="url(#paint0_linear_163_418)" fill-opacity="0.37"/>
<g id="Group 18326">
<g id="icon/AI Generate A filled">
<g id="Vector">
<path d="M206 275C204.343 275 203 273.657 203 272C203 270.343 204.343 269 206 269C207.657 269 209 270.343 209 272C209 273.657 207.657 275 206 275Z" fill="#B5FF00"/>
<path d="M242 215C240.343 215 239 213.657 239 212C239 210.343 240.343 209 242 209C243.657 209 245 210.343 245 212C245 213.657 243.657 215 242 215Z" fill="#B5FF00"/>
<path d="M254 227C252.343 227 251 225.657 251 224C251 222.343 252.343 221 254 221C255.657 221 257 222.343 257 224C257 225.657 255.657 227 254 227Z" fill="#B5FF00"/>
<path d="M220.084 221.08C221.08 216.973 226.92 216.973 227.916 221.08L230.655 232.378C231.011 233.844 232.156 234.989 233.622 235.345L244.92 238.084C249.027 239.08 249.027 244.92 244.92 245.916L233.622 248.655C232.156 249.011 231.011 250.156 230.655 251.622L227.916 262.92C226.92 267.027 221.08 267.027 220.084 262.92L217.345 251.622C216.989 250.156 215.844 249.011 214.378 248.655L203.08 245.916C198.973 244.92 198.973 239.08 203.08 238.084L214.378 235.345C215.844 234.989 216.989 233.844 217.345 232.378L220.084 221.08Z" fill="#B5FF00"/>
<path fill-rule="evenodd" clip-rule="evenodd" d="M254.944 250.986C256.341 251.507 257.051 253.063 256.53 254.46C253.152 263.509 246.14 270.778 237.269 274.491C235.893 275.066 234.311 274.418 233.736 273.042C233.16 271.667 233.808 270.085 235.184 269.509C242.682 266.371 248.616 260.22 251.47 252.571C251.992 251.174 253.547 250.465 254.944 250.986Z" fill="#B5FF00"/>
<path fill-rule="evenodd" clip-rule="evenodd" d="M215.062 211.054C215.585 212.451 214.876 214.006 213.48 214.529C205.789 217.406 199.612 223.409 196.498 230.992C195.931 232.371 194.354 233.03 192.974 232.464C191.595 231.897 190.936 230.32 191.502 228.94C195.186 219.972 202.484 212.877 211.587 209.471C212.984 208.949 214.54 209.657 215.062 211.054Z" fill="#B5FF00"/>
<path d="M194 263C192.343 263 191 261.657 191 260C191 258.343 192.343 257 194 257C195.657 257 197 258.343 197 260C197 261.657 195.657 263 194 263Z" fill="#B5FF00"/>
</g>
</g>
<g id="Group 18325">
<path id="Ellipse 123" d="M352.995 302.038C336.102 335.27 264.337 332.691 192.704 296.277C121.07 259.863 76.6945 203.404 93.5876 170.172C110.481 136.94 182.245 139.519 253.879 175.933C325.512 212.347 369.888 268.806 352.995 302.038ZM96.2894 171.545C79.7483 204.085 123.2 259.368 193.341 295.023C263.482 330.679 333.752 333.204 350.293 300.665C366.834 268.125 323.383 212.842 253.242 177.187C183.1 141.531 112.831 139.006 96.2894 171.545Z" fill="#D0FF6D" fill-opacity="0.9"/>
<path id="Ellipse 124" d="M103.536 316.922C82.8054 285.939 120.142 224.596 186.929 179.911C253.715 135.225 324.662 124.117 345.393 155.101C366.123 186.084 328.787 247.427 262 292.112C195.213 336.798 124.266 347.906 103.536 316.922ZM342.874 156.786C322.575 126.448 253.106 137.324 187.71 181.079C122.315 224.834 85.7563 284.899 106.055 315.237C126.354 345.575 195.823 334.699 261.218 290.944C326.614 247.189 363.173 187.124 342.874 156.786Z" fill="#D0FF6D" fill-opacity="0.9"/>
<path id="Ellipse 125" d="M227.608 381.773C190.343 382.815 158.314 318.543 156.067 238.217C153.821 157.891 182.209 91.929 219.474 90.8869C256.738 89.8448 288.768 154.117 291.015 234.443C293.261 314.769 264.873 380.731 227.608 381.773ZM219.558 93.9166C183.07 94.9369 155.273 159.525 157.473 238.178C159.672 316.83 191.035 379.764 227.523 378.743C264.012 377.723 291.808 313.135 289.609 234.482C287.409 155.83 256.047 92.8962 219.558 93.9166Z" fill="#D0FF6D" fill-opacity="0.9"/>
</g>
</g>
</g>
</g>
<defs>
<linearGradient id="paint0_linear_163_418" x1="226.489" y1="2" x2="226.489" y2="462.914" gradientUnits="userSpaceOnUse">
<stop stop-color="#0B0B0B"/>
<stop offset="1" stop-color="#D0FF6D" stop-opacity="0.05"/>
</linearGradient>
</defs>
</svg>
