<svg width="520" height="148" viewBox="0 0 520 148" fill="none" xmlns="http://www.w3.org/2000/svg">
<path d="M95.8819 19C96.4724 19 97.0145 19.3252 97.2898 19.8448L111.938 47.4857C112.199 47.9787 112.181 48.5719 111.889 49.0477L98.3179 71.179C97.6712 72.2337 98.4345 73.5858 99.6767 73.5858H124.406C125.613 73.5858 126.381 74.8688 125.805 75.9234L97.2938 128.172C97.0155 128.682 96.4787 129 95.895 129H60.4388C59.829 129 59.2728 128.653 59.0068 128.108L47.9863 105.503C47.436 104.374 45.847 104.301 45.1932 105.373L32.2139 126.671C31.581 127.71 30.0565 127.682 29.4624 126.621L0.201108 74.3727C-0.0721401 73.8848 -0.0666032 73.2898 0.215667 72.807L16.4088 45.1109C16.6937 44.6236 17.2178 44.3237 17.7846 44.3237H42.0361C43.2449 44.3237 44.0124 43.0363 43.4324 41.9816L32.0827 21.3422C31.5027 20.2874 32.2702 19 33.479 19H95.8819Z" fill="white"/>
<path d="M78.6806 44.7194C79.26 44.7194 79.7936 45.0326 80.0738 45.537L95.1132 72.6194C95.3758 73.0924 95.3777 73.6659 95.1182 74.1406L80.0717 101.662C79.7932 102.172 79.2567 102.489 78.6735 102.489H46.437C45.8673 102.489 45.3411 102.186 45.0572 101.695L29.151 74.1736C28.8669 73.6819 28.8689 73.0766 29.1564 72.5869L45.0554 45.5042C45.3407 45.0182 45.864 44.7194 46.4298 44.7194H78.6806Z" fill="#141313"/>
<path d="M227.034 73.6364C227.034 83.1965 225.243 91.3847 221.662 98.201C218.109 104.988 213.257 110.187 207.105 113.798C200.982 117.408 194.036 119.213 186.266 119.213C178.497 119.213 171.536 117.408 165.384 113.798C159.261 110.158 154.409 104.945 150.827 98.1577C147.275 91.3414 145.499 83.1676 145.499 73.6364C145.499 64.0762 147.275 55.9025 150.827 49.1151C154.409 42.2988 159.261 37.0855 165.384 33.4751C171.536 29.8648 178.497 28.0597 186.266 28.0597C194.036 28.0597 200.982 29.8648 207.105 33.4751C213.257 37.0855 218.109 42.2988 221.662 49.1151C225.243 55.9025 227.034 64.0762 227.034 73.6364ZM210.874 73.6364C210.874 66.9067 209.82 61.2313 207.712 56.6101C205.632 51.96 202.744 48.4508 199.047 46.0824C195.35 43.6851 191.09 42.4865 186.266 42.4865C181.443 42.4865 177.183 43.6851 173.486 46.0824C169.789 48.4508 166.886 51.96 164.778 56.6101C162.698 61.2313 161.658 66.9067 161.658 73.6364C161.658 80.366 162.698 86.0559 164.778 90.706C166.886 95.3272 169.789 98.8364 173.486 101.234C177.183 103.602 181.443 104.786 186.266 104.786C191.09 104.786 195.35 103.602 199.047 101.234C202.744 98.8364 205.632 95.3272 207.712 90.706C209.82 86.0559 210.874 80.366 210.874 73.6364ZM249.734 97.1179L249.69 78.1854H252.203L276.118 51.4545H294.444L265.027 84.2074H261.778L249.734 97.1179ZM235.437 118V29.2727H251.12V118H235.437ZM277.201 118L255.539 87.7166L266.11 76.669L295.96 118H277.201ZM341.21 90.0128V51.4545H356.893V118H341.686V106.173H340.993C339.491 109.898 337.022 112.946 333.585 115.314C330.177 117.682 325.974 118.866 320.978 118.866C316.616 118.866 312.76 117.899 309.41 115.964C306.089 114 303.489 111.155 301.612 107.429C299.734 103.674 298.796 99.1397 298.796 93.8253V51.4545H314.479V91.3991C314.479 95.616 315.634 98.9664 317.945 101.45C320.255 103.934 323.288 105.176 327.043 105.176C329.354 105.176 331.592 104.613 333.758 103.487C335.924 102.36 337.701 100.685 339.087 98.4609C340.502 96.2081 341.21 93.392 341.21 90.0128ZM382.604 29.2727V118H366.92V29.2727H382.604ZM435.045 90.0128V51.4545H450.728V118H435.522V106.173H434.828C433.326 109.898 430.857 112.946 427.42 115.314C424.012 117.682 419.809 118.866 414.813 118.866C410.451 118.866 406.596 117.899 403.245 115.964C399.924 114 397.324 111.155 395.447 107.429C393.57 103.674 392.631 99.1397 392.631 93.8253V51.4545H408.314V91.3991C408.314 95.616 409.469 98.9664 411.78 101.45C414.091 103.934 417.123 105.176 420.878 105.176C423.189 105.176 425.427 104.613 427.593 103.487C429.759 102.36 431.536 100.685 432.922 98.4609C434.337 96.2081 435.045 93.392 435.045 90.0128ZM513.351 69.044L499.054 70.6037C498.649 69.1596 497.942 67.8021 496.931 66.5312C495.949 65.2604 494.62 64.2351 492.945 63.4553C491.27 62.6754 489.219 62.2855 486.793 62.2855C483.529 62.2855 480.786 62.9931 478.562 64.4084C476.367 65.8236 475.283 67.6577 475.312 69.9105C475.283 71.8456 475.991 73.4197 477.435 74.6328C478.908 75.8459 481.334 76.8423 484.714 77.6222L496.064 80.0483C502.361 81.4058 507.04 83.5575 510.101 86.5035C513.192 89.4496 514.751 93.3054 514.78 98.071C514.751 102.259 513.524 105.956 511.098 109.162C508.701 112.339 505.365 114.823 501.09 116.614C496.815 118.404 491.905 119.3 486.36 119.3C478.215 119.3 471.659 117.596 466.691 114.188C461.723 110.75 458.763 105.97 457.809 99.8473L473.103 98.3743C473.796 101.378 475.269 103.645 477.522 105.176C479.775 106.707 482.706 107.472 486.317 107.472C490.042 107.472 493.032 106.707 495.285 105.176C497.566 103.645 498.707 101.754 498.707 99.5007C498.707 97.5945 497.971 96.0204 496.498 94.7784C495.054 93.5365 492.801 92.5833 489.739 91.919L478.388 89.5362C472.005 88.2076 467.283 85.9692 464.221 82.821C461.16 79.6439 459.644 75.6293 459.672 70.777C459.644 66.6757 460.756 63.1231 463.008 60.1193C465.29 57.0866 468.453 54.7472 472.496 53.1008C476.569 51.4257 481.262 50.5881 486.577 50.5881C494.375 50.5881 500.512 52.2488 504.989 55.5703C509.495 58.8918 512.282 63.383 513.351 69.044Z" fill="white"/>
</svg>
