<svg width="126" height="110" viewBox="0 0 126 110" fill="none" xmlns="http://www.w3.org/2000/svg">
<path d="M95.8819 0C96.4724 0 97.0145 0.325224 97.2898 0.844801L111.938 28.4857C112.199 28.9787 112.181 29.5719 111.889 30.0477L98.3179 52.179C97.6712 53.2337 98.4345 54.5858 99.6767 54.5858H124.406C125.613 54.5858 126.381 55.8688 125.805 56.9234L97.2938 109.172C97.0155 109.682 96.4787 110 95.895 110H60.4388C59.829 110 59.2728 109.653 59.0068 109.108L47.9863 86.5033C47.436 85.3745 45.847 85.3006 45.1932 86.3734L32.2139 107.671C31.581 108.71 30.0565 108.682 29.4624 107.621L0.201108 55.3727C-0.0721401 54.8848 -0.0666032 54.2898 0.215667 53.807L16.4088 26.1109C16.6937 25.6236 17.2178 25.3237 17.7846 25.3237H42.0361C43.2449 25.3237 44.0124 24.0363 43.4324 22.9816L32.0827 2.34215C31.5027 1.28742 32.2702 0 33.479 0H95.8819Z" fill="white"/>
<path d="M78.6806 25.7194C79.26 25.7194 79.7936 26.0326 80.0738 26.537L95.1132 53.6194C95.3758 54.0924 95.3777 54.6659 95.1182 55.1406L80.0717 82.6625C79.7932 83.172 79.2567 83.4892 78.6735 83.4892H46.437C45.8673 83.4892 45.3411 83.1864 45.0572 82.6952L29.151 55.1736C28.8669 54.6819 28.8689 54.0766 29.1564 53.5869L45.0554 26.5042C45.3407 26.0182 45.864 25.7194 46.4298 25.7194H78.6806Z" fill="#141313"/>
</svg>
